HIERARCHY
ROOT Hips
{
	OFFSET -0.001795 -0.223333 0.028219
	CHANNELS 6 Xposition Yposition Zposition Zrotation Yrotation Xrotation 
	JOINT LeftUpLeg
	{
		OFFSET 0.069520 -0.091406 -0.006815
		CHANNELS 3 Zrotation Yrotation Xrotation
		JOINT LeftLeg
		{
			OFFSET 0.034277 -0.375199 -0.004496
			CHANNELS 3 Zrotation Yrotation Xrotation
			JOINT LeftFoot
			{
				OFFSET -0.013596 -0.397961 -0.043693
				CHANNELS 3 Zrotation Yrotation Xrotation
				JOINT LeftToe
				{
					OFFSET 0.026358 -0.055791 0.119288
					CHANNELS 3 Zrotation Yrotation Xrotation
					End Site
					{
						OFFSET 0.000000 0.000000 0.000000
					}
				}
			}
		}
	}
	JOINT RightUpLeg
	{
		OFFSET -0.067670 -0.090522 -0.004320
		CHANNELS 3 Zrotation Yrotation Xrotation
		JOINT RightLeg
		{
			OFFSET -0.038290 -0.382569 -0.008850
			CHANNELS 3 Zrotation Yrotation Xrotation
			JOINT RightFoot
			{
				OFFSET 0.015774 -0.398415 -0.042312
				CHANNELS 3 Zrotation Yrotation Xrotation
				JOINT RightToe
				{
					OFFSET -0.025372 -0.048144 0.123348
					CHANNELS 3 Zrotation Yrotation Xrotation
					End Site
					{
						OFFSET 0.000000 0.000000 0.000000
					}
				}
			}
		}
	}
	JOINT Spine
	{
		OFFSET -0.002533 0.108963 -0.026696
		CHANNELS 3 Zrotation Yrotation Xrotation
		JOINT Spine1
		{
			OFFSET 0.005487 0.135180 0.001092
			CHANNELS 3 Zrotation Yrotation Xrotation
			JOINT Spine2
			{
				OFFSET 0.001457 0.052922 0.025425
				CHANNELS 3 Zrotation Yrotation Xrotation
				JOINT Neck
				{
					OFFSET -0.002778 0.213870 -0.042857
					CHANNELS 3 Zrotation Yrotation Xrotation
					JOINT Head
					{
						OFFSET 0.005152 0.064970 0.051349
						CHANNELS 3 Zrotation Yrotation Xrotation
						End Site
						{
							OFFSET 0.000000 0.000000 0.000000
						}
					}
				}
				JOINT LeftShoulder
				{
					OFFSET 0.078845 0.121749 -0.034090
					CHANNELS 3 Zrotation Yrotation Xrotation
					JOINT LeftArm
					{
						OFFSET 0.090977 0.030469 -0.008868
						CHANNELS 3 Zrotation Yrotation Xrotation
						JOINT LeftForeArm
						{
							OFFSET 0.259612 -0.012772 -0.027456
							CHANNELS 3 Zrotation Yrotation Xrotation
							JOINT LeftHand
							{
								OFFSET 0.249234 0.008986 -0.001171
								CHANNELS 3 Zrotation Yrotation Xrotation
								End Site
								{
									OFFSET 0.000000 0.000000 0.000000
								}
							}
						}
					}
				}
				JOINT RightShoulder
				{
					OFFSET -0.081759 0.118833 -0.038615
					CHANNELS 3 Zrotation Yrotation Xrotation
					JOINT RightArm
					{
						OFFSET -0.096012 0.032551 -0.009143
						CHANNELS 3 Zrotation Yrotation Xrotation
						JOINT RightForeArm
						{
							OFFSET -0.253742 -0.013329 -0.021401
							CHANNELS 3 Zrotation Yrotation Xrotation
							JOINT RightHand
							{
								OFFSET -0.255298 0.007772 -0.005559
								CHANNELS 3 Zrotation Yrotation Xrotation
								End Site
								{
									OFFSET 0.000000 0.000000 0.000000
								}
							}
						}
					}
				}
			}
		}
	}
}
MOTION
Frames: 17
Frame Time: 0.050000
0.040363 0.957658 -0.015209 5.037277 12.865565 10.860198 3.450857 -1.027036 -12.222615 0.930581 -0.114858 0.741170 -4.084367 -1.483091 10.285674 0.000000 0.000000 0.000000 -12.052356 -0.037975 -10.122693 -6.584498 1.216223 5.330154 -1.829625 -6.189524 9.457586 0.000000 0.000000 0.000000 5.869902 0.183388 -6.055711 0.892713 -0.430689 -0.327215 -4.847240 15.564950 11.673557 18.128626 -21.068572 7.680368 0.000000 0.000000 0.000000 39.284622 -1.589705 9.146824 -45.901606 -51.625411 3.930472 111.177268 -35.133970 -57.232855 0.000000 0.000000 0.000000 -37.548421 1.930080 -3.513319 69.210842 18.422185 16.868414 -126.814073 31.049935 -36.109381 0.000000 0.000000 0.000000 
0.039922 0.954810 -0.015774 4.469901 11.542893 11.181145 3.599986 -0.984376 -11.914991 1.684816 -0.192187 0.851495 -2.770790 -0.129414 8.852210 0.000000 0.000000 0.000000 -11.566037 0.046491 -11.774861 -6.033628 1.233487 6.808962 -1.655603 -5.918454 9.019860 0.000000 0.000000 0.000000 6.639717 0.081816 -4.834722 -0.058169 0.117067 -2.029163 -4.993534 15.090296 11.561722 18.751797 -21.122036 6.895672 0.000000 0.000000 0.000000 31.809332 -3.146103 8.008147 -68.902318 -48.551293 9.947324 121.614231 -36.879383 -64.490271 0.000000 0.000000 0.000000 -31.155556 -1.097829 -3.484297 86.966271 24.528011 28.886992 -128.846277 27.437846 -36.299855 0.000000 0.000000 0.000000 
0.040308 0.951368 -0.015551 3.652419 10.951541 11.500331 4.037000 -1.001459 -12.414581 1.405813 -0.175079 1.008480 -1.723442 1.377262 8.302150 0.000000 0.000000 0.000000 -11.547042 0.076275 -12.342041 -3.613151 0.847751 7.430785 -1.559223 -5.507661 7.434388 0.000000 0.000000 0.000000 6.867026 0.064230 -4.749239 0.066621 -0.053108 -0.266511 -6.769313 13.285201 9.305120 17.879751 -19.854399 7.029446 0.000000 0.000000 0.000000 24.609846 -3.780692 6.647369 -89.030437 -43.943522 14.079527 131.877794 -39.559752 -75.703876 0.000000 0.000000 0.000000 -24.297875 -3.145172 -3.049165 101.824473 26.225254 37.245344 -129.742474 23.263272 -33.744416 0.000000 0.000000 0.000000 
0.041343 0.948520 -0.014878 2.466438 9.621077 10.694770 4.580371 -0.872196 -11.227809 2.234711 -0.260490 1.014007 -0.281144 3.413325 7.464669 0.000000 0.000000 0.000000 -11.059618 0.184352 -12.160649 -2.189697 0.619303 7.929912 -0.745471 -3.583607 6.101151 0.000000 0.000000 0.000000 7.459268 -0.038512 -3.503569 -0.212521 0.059653 0.096595 -7.317700 11.059204 8.523889 16.808879 -19.606006 9.193443 0.000000 0.000000 0.000000 19.382918 -5.508229 5.410234 -97.907108 -40.907634 16.898544 135.667986 -39.306278 -78.211225 0.000000 0.000000 0.000000 -18.690171 -3.278652 -2.305783 109.503441 25.945490 38.544406 -131.270044 24.277545 -38.695151 0.000000 0.000000 0.000000 
0.042524 0.947530 -0.014718 1.869648 8.651423 9.903337 4.824627 -0.805054 -10.614923 2.383562 -0.308800 1.504849 -0.525956 2.962492 7.638720 0.000000 0.000000 0.000000 -10.417649 0.271857 -12.063582 -1.819300 0.612813 9.428690 -0.958208 -3.993922 5.475076 0.000000 0.000000 0.000000 7.062442 -0.019157 -3.321761 -0.187662 0.057458 0.040255 -7.720662 6.400965 9.234576 13.065174 -15.306909 9.929331 0.000000 0.000000 0.000000 18.628496 -7.285084 4.624817 -94.959886 -44.664927 24.620950 130.920560 -34.300014 -63.709741 0.000000 0.000000 0.000000 -16.180239 -2.777726 -1.341026 111.421085 24.238958 32.186726 -136.769508 32.093714 -59.360094 0.000000 0.000000 0.000000 
0.043419 0.949077 -0.015714 1.028588 7.682667 10.171976 5.296494 -0.761743 -10.281991 2.552110 -0.304812 1.098611 -0.152343 3.578089 7.735496 0.000000 0.000000 0.000000 -8.738932 0.480624 -13.178591 -2.575799 0.759659 9.093002 -0.291663 -2.714381 5.962401 0.000000 0.000000 0.000000 5.724869 0.078930 -4.172303 0.436062 -0.302186 1.259306 -7.391594 2.792716 8.536260 10.169320 -11.898518 10.322427 0.000000 0.000000 0.000000 21.368353 -8.101632 4.235416 -84.985112 -51.927857 30.472544 120.865981 -27.056197 -42.748624 0.000000 0.000000 0.000000 -16.841041 -3.216849 -0.707925 106.062527 18.725893 18.524213 -145.929752 39.843272 -86.625635 0.000000 0.000000 0.000000 
0.043406 0.951811 -0.018478 0.222355 6.565679 9.913983 6.651080 -0.696985 -10.239851 1.698782 -0.236013 1.432884 0.290415 4.698742 8.857973 0.000000 0.000000 0.000000 -7.071962 0.670935 -13.199147 -3.211543 0.863821 8.531640 -0.033827 -2.599978 7.082046 0.000000 0.000000 0.000000 4.030919 0.040123 -3.127047 2.132212 -0.961029 -0.757767 -7.505575 0.125142 10.230437 7.728119 -8.834627 9.317467 0.000000 0.000000 0.000000 27.413576 -8.751316 3.789718 -71.460479 -55.278747 28.018440 113.009615 -19.306895 -26.043287 0.000000 0.000000 0.000000 -18.566825 -5.165812 -0.486492 99.270412 14.979664 9.521730 -153.948085 44.758952 -108.190652 0.000000 0.000000 0.000000 
0.042292 0.953666 -0.022378 -0.904737 6.330039 10.729975 7.773410 -0.714972 -11.647600 2.348126 -0.356160 2.271005 0.168801 4.277820 8.399385 0.000000 0.000000 0.000000 -5.630100 0.875336 -14.735743 -3.349543 0.879343 8.331752 -0.605460 -4.030692 7.652814 0.000000 0.000000 0.000000 2.852378 0.016221 -2.488156 2.988084 -1.326910 -1.092263 -6.798157 -2.625132 9.701438 6.747745 -7.483173 8.909574 0.000000 0.000000 0.000000 30.979567 -9.268407 3.211961 -62.345860 -55.740912 25.256952 107.673610 -14.929529 -17.401209 0.000000 0.000000 0.000000 -18.669221 -5.444639 0.046349 96.380596 14.471544 6.040550 -156.135407 47.382495 -116.611029 0.000000 0.000000 0.000000 
0.040706 0.954440 -0.026799 -1.216238 6.227322 11.764848 8.594821 -0.750189 -13.631608 2.044865 -0.384477 3.391566 0.095580 4.243752 8.682688 0.000000 0.000000 0.000000 -5.190573 1.002186 -16.400799 -2.984353 0.809868 8.297083 -0.665820 -4.403465 8.479836 0.000000 0.000000 0.000000 2.138820 -0.046029 -1.184832 3.459238 -1.442278 -2.253259 -6.757883 -3.207731 9.730129 5.723601 -6.478403 9.213239 0.000000 0.000000 0.000000 30.948321 -8.588318 3.045492 -61.662194 -54.276556 24.213468 103.817989 -16.436066 -17.720199 0.000000 0.000000 0.000000 -18.227017 -6.928569 -0.163016 96.446215 11.837564 2.879245 -160.550397 48.680547 -126.790001 0.000000 0.000000 0.000000 
0.039404 0.952362 -0.030852 -1.202407 7.129809 12.370934 9.108112 -0.816836 -15.815739 1.320120 -0.377587 4.970072 0.223876 4.798666 9.295051 0.000000 0.000000 0.000000 -4.776305 1.078238 -17.762079 -2.806696 0.838893 9.729542 -1.615143 -6.137927 7.755047 0.000000 0.000000 0.000000 1.832072 -0.106056 0.047287 3.724070 -1.527787 -2.581263 -6.869508 -2.285746 8.905071 7.415161 -7.802078 7.501422 0.000000 0.000000 0.000000 27.956231 -8.179611 3.405679 -67.746018 -51.084969 24.170557 103.041202 -23.715936 -26.438200 0.000000 0.000000 0.000000 -16.733032 -5.893892 -0.365925 98.899903 12.228320 4.783329 -157.193103 50.422396 -122.238305 0.000000 0.000000 0.000000 
0.039422 0.949279 -0.034513 -0.807606 9.133823 12.717900 9.103993 -0.965329 -17.963189 0.491823 -0.391719 7.313761 0.467038 4.811517 7.754170 0.000000 0.000000 0.000000 -5.500831 0.936084 -18.665127 -2.182552 0.718720 10.514146 -2.487071 -7.949150 8.829923 0.000000 0.000000 0.000000 2.383275 -0.255528 1.906434 2.721337 -1.044521 -3.006542 -6.480827 0.770115 8.598541 10.021303 -9.681437 4.640183 0.000000 0.000000 0.000000 21.891053 -7.111287 3.949802 -75.298795 -45.477817 20.909215 103.557974 -39.266975 -45.999411 0.000000 0.000000 0.000000 -13.789485 -3.805176 -0.782749 101.299685 13.948285 10.310321 -146.084499 53.615070 -106.314331 0.000000 0.000000 0.000000 
0.041281 0.947464 -0.037499 0.318108 10.667896 12.873409 8.610794 -1.137122 -19.406154 -1.056819 -0.268729 9.505424 0.993726 5.620178 7.093093 0.000000 0.000000 0.000000 -6.906679 0.668222 -19.030086 -1.901571 0.666606 11.706080 -2.664803 -7.997496 7.845181 0.000000 0.000000 0.000000 2.724126 -0.377832 3.314574 1.980637 -0.712826 -3.042978 -7.226926 5.461510 8.135866 13.844777 -12.025520 0.957529 0.000000 0.000000 0.000000 18.013426 -7.014575 4.621804 -78.897294 -38.165651 13.121785 95.439372 -56.882486 -60.645285 0.000000 0.000000 0.000000 -12.009626 -0.966954 -0.791564 103.351552 17.627087 19.489777 -125.586141 54.446088 -78.812357 0.000000 0.000000 0.000000 
0.044507 0.946602 -0.038835 1.161765 12.530035 12.899019 8.249610 -1.275372 -19.837108 -1.785574 -0.213239 10.289958 0.763406 5.446688 7.282002 0.000000 0.000000 0.000000 -8.458387 0.329225 -18.613128 -1.693533 0.591924 12.348547 -2.389420 -7.173835 7.599991 0.000000 0.000000 0.000000 3.742380 -0.495756 3.682561 0.435691 -0.072505 -2.559599 -7.405496 10.480627 7.942085 17.107979 -13.801364 -1.921318 0.000000 0.000000 0.000000 15.108543 -7.428836 5.156267 -81.208651 -30.855056 4.607865 81.707958 -72.406606 -65.858770 0.000000 0.000000 0.000000 -11.350108 1.834190 -0.527077 102.874804 23.719035 30.458734 -98.800618 46.660086 -43.438535 0.000000 0.000000 0.000000 
0.048437 0.946756 -0.038644 1.732469 11.749652 12.726444 8.233826 -1.218704 -19.406079 -2.683172 -0.058773 10.571543 0.969865 5.376218 6.435337 0.000000 0.000000 0.000000 -9.277976 0.248678 -17.957170 -1.905426 0.653094 12.222727 -1.562144 -5.310944 6.669002 0.000000 0.000000 0.000000 4.457234 -0.547416 3.563169 -0.649899 0.404089 -2.793592 -7.846087 15.615604 7.163236 19.414941 -14.771045 -4.094184 0.000000 0.000000 0.000000 15.123239 -6.776010 5.704997 -82.998094 -23.441368 -3.970239 34.033265 -81.907183 -32.480838 0.000000 0.000000 0.000000 -12.891575 3.886828 -0.493223 102.481998 27.572128 38.054600 -83.646032 36.503947 -24.771730 0.000000 0.000000 0.000000 
0.052395 0.947729 -0.037235 1.590634 11.081292 12.788572 8.354119 -1.143623 -18.664688 -3.157014 0.068598 9.486820 0.757793 5.302806 7.283112 0.000000 0.000000 0.000000 -9.184793 0.309697 -17.226846 -3.141606 0.914614 11.326545 -0.798848 -3.746163 6.900987 0.000000 0.000000 0.000000 5.116569 -0.482264 2.164708 -1.305943 0.681673 -2.813755 -7.954471 17.365468 7.381233 21.043345 -15.120607 -6.151607 0.000000 0.000000 0.000000 16.556634 -3.688505 5.800567 -84.694201 -17.972586 -9.877821 -36.986025 -81.620702 29.332894 0.000000 0.000000 0.000000 -15.679420 3.967163 -1.050376 100.798586 27.885687 38.821156 -78.763178 36.697409 -23.011266 0.000000 0.000000 0.000000 
0.056225 0.948927 -0.035430 1.113470 8.543360 12.375806 8.275504 -1.001736 -17.733707 -3.160597 0.121655 9.311649 0.929258 5.223303 6.856812 0.000000 0.000000 0.000000 -8.678031 0.501349 -16.208610 -4.099182 1.116903 10.519141 1.216941 0.367801 7.034372 0.000000 0.000000 0.000000 5.594261 -0.430740 1.311376 -2.049960 1.008403 -3.378852 -7.510676 16.409560 7.515536 20.091093 -12.897135 -8.886629 0.000000 0.000000 0.000000 17.870599 -1.900926 5.498365 -84.714007 -14.283254 -11.928052 -61.674563 -80.714795 51.836641 0.000000 0.000000 0.000000 -16.546225 2.391917 -1.358712 96.349073 25.446027 32.003304 -79.330135 47.714538 -31.849433 0.000000 0.000000 0.000000 
0.059732 0.949685 -0.033793 0.495559 5.275673 11.717971 8.141451 -0.836905 -16.517596 -3.077631 0.178280 8.771246 2.006759 6.833629 6.603062 0.000000 0.000000 0.000000 -8.324924 0.661155 -15.585932 -5.105546 1.267662 9.261566 2.751092 2.998197 7.929784 0.000000 0.000000 0.000000 5.495655 -0.281519 -0.065161 -1.788309 0.900330 -4.134092 -7.457619 13.900599 8.138974 19.177083 -12.275347 -9.088736 0.000000 0.000000 0.000000 19.196130 -0.468301 4.830579 -83.983687 -14.427974 -9.555810 -74.383900 -82.697530 67.063685 0.000000 0.000000 0.000000 -16.917805 -0.202231 -1.527189 93.494260 23.235008 25.568288 -89.095837 60.127313 -49.698002 0.000000 0.000000 0.000000 
